# xmcd CD database file
#
# Track frame offsets:
#	150
#	11860
#	28017
#	40005
#	52607
#	61485
#	70562
#	87145
#	97015
#	115360
#	130855
#	145825
#	158207
#	171480
#	185245
#	202947
#	212660
#	227777
#	243450
#	258662
#	274137
#	286322
#
# Disc length: 3951 seconds
#
# Revision: 1
# Processed by: cddbd v1.5.1PL2 Copyright (c) Steve Scherf et al.
# Submitted via: CDex 1.51
#
DISCID=430f6d16
DTITLE=Various Artist - Three Shades of Blues
DYEAR=1999
DGENRE=Blues
TTITLE0=Am I wrong? - Keb' Mo'
TTITLE1=Kindhearted woman blues - Keb' Mo'
TTITLE2=Dirty, low down and bad - Keb' Mo'
TTITLE3=Anybody seen my girl? - Keb' Mo'
TTITLE4=Love blues - Keb' Mo'
TTITLE5=Angelina - Keb' Mo'
TTITLE6=Ain't like you used to be - Mike Morgan &The Crawl
TTITLE7=Tell me you want to stay - Mike Morgan &The Crawl
TTITLE8=Icried a million tears - Mike Morgan &The Crawl
TTITLE9=Just the kind of man I am - Mike Morgan &The Crawl
TTITLE10=You don't know how much I love you - Mike Morgan &The Crawl
TTITLE11=Losing ground - Mike Morgan &The Crawl
TTITLE12=Low downdest - Mike Morgan &The Crawl
TTITLE13=Ain't worried no more - Mike Morgan &The Crawl
TTITLE14=Someone else is stepping' in - Maria Muldaur
TTITLE15=Trouble with love - Maria Muldaur
TTITLE16=I'm a woman - Maria Muldaur
TTITLE17=Without a friend like you - Maria Muldaur
TTITLE18=Please send me someone to love - Maria Muldaur
TTITLE19=Cajun moon - Maria Muldaur
TTITLE20=Second line - Maria Muldaur
TTITLE21=Meet me at midnight - Maria Muldaur
EXTD=YEAR: 1999
EXTT0=
EXTT1=
EXTT2=
EXTT3=
EXTT4=
EXTT5=
EXTT6=
EXTT7=
EXTT8=
EXTT9=
EXTT10=
EXTT11=
EXTT12=
EXTT13=
EXTT14=
EXTT15=
EXTT16=
EXTT17=
EXTT18=
EXTT19=
EXTT20=
EXTT21=
PLAYORDER=
